<?xml version="1.0" encoding="UTF-8" standalone="no"?>
<!-- Created with Inkscape (http://www.inkscape.org/) -->

<svg
   width="603.99512mm"
   height="60.689384mm"
   viewBox="0 0 603.99512 60.689384"
   version="1.1"
   id="svg1"
   xml:space="preserve"
   inkscape:export-filename="bitmap.svg"
   inkscape:export-xdpi="96"
   inkscape:export-ydpi="96"
   xmlns:inkscape="http://www.inkscape.org/namespaces/inkscape"
   xmlns:sodipodi="http://sodipodi.sourceforge.net/DTD/sodipodi-0.dtd"
   xmlns="http://www.w3.org/2000/svg"
   xmlns:svg="http://www.w3.org/2000/svg"><sodipodi:namedview
     id="namedview1"
     pagecolor="#ffffff"
     bordercolor="#000000"
     borderopacity="0.25"
     inkscape:showpageshadow="2"
     inkscape:pageopacity="0.0"
     inkscape:pagecheckerboard="0"
     inkscape:deskcolor="#d1d1d1"
     inkscape:document-units="mm" /><defs
     id="defs1" /><g
     inkscape:label="Layer 1"
     inkscape:groupmode="layer"
     id="layer1"
     transform="translate(180.28538,-251.44116)"><path
       style="display:inline;fill:#000000"
       d="m 104.46052,311.57871 c -2.02662,-0.88002 -3.84331,-2.57783 -4.789018,-4.47562 -1.142959,-2.29362 -1.142289,-3.12024 0.0036,-4.48209 0.721348,-0.85727 1.191808,-1.0854 2.238388,-1.0854 1.52729,0 2.17032,0.57357 3.01147,2.68612 0.34003,0.85401 0.93985,1.61632 1.4573,1.85208 0.48367,0.22038 2.52996,0.40069 4.5473,0.40069 3.36832,0 3.74874,-0.0695 4.65771,-0.85113 l 0.98981,-0.85113 v -16.1704 -16.17039 l -4.7625,-0.0889 c -5.15864,-0.0963 -6.08255,-0.35404 -6.71154,-1.87256 -0.48297,-1.16598 -0.21601,-2.21139 0.8084,-3.16578 0.68914,-0.64203 1.27288,-0.69362 7.84844,-0.69362 6.96953,0 7.11845,0.0155 7.87098,0.81649 l 0.76705,0.81649 -0.008,18.67448 c -0.007,17.40196 -0.0521,18.77064 -0.65907,20.0856 -0.91012,1.97179 -2.99944,3.9176 -4.90296,4.56619 -2.18075,0.74306 -10.66286,0.74914 -12.36764,0.009 z m -135.168126,-12.50016 -0.881944,-0.67748 v -22.15704 -22.15704 l 10.741,-0.0935 c 12.2338989,-0.10646 13.1971099,0.0427 15.5646336,2.41022 2.5335614,2.53356 2.6090458,2.83729 2.7359691,11.0088 0.1303528,8.3923 -0.1499047,9.86053 -2.3059483,12.08054 -2.4050865,2.47644 -3.1034195,2.62327 -12.5179134,2.632 l -8.360036,0.008 -0.10663,8.14563 c -0.105713,8.07551 -0.113801,8.15144 -0.939463,8.81945 -1.061624,0.85892 -2.797455,0.85037 -3.929668,-0.0194 z m 21.4115769,-23.44157 0.989811,-0.8514 v -6.58748 -6.58748 l -0.989811,-0.8514 c -0.9812989,-0.84407 -1.0563809,-0.8514 -8.7312499,-0.8514 h -7.741438 v 8.29028 8.29028 h 7.741438 c 7.674869,0 7.749951,-0.007 8.7312499,-0.8514 z M 11.786079,298.9058 10.92017,298.03989 v -14.78512 c 0,-14.42354 0.01788,-14.80786 0.73116,-15.71465 0.930983,-1.18355 2.984564,-1.2878 4.141208,-0.21022 0.640366,0.59659 0.772076,1.10813 0.772076,2.99861 0,1.75616 0.117432,2.27931 0.511637,2.27931 0.281401,0 0.638588,-0.20149 0.79375,-0.44776 0.552209,-0.87645 4.891572,-4.25518 6.279335,-4.88924 2.012301,-0.9194 8.567672,-0.92031 10.583333,-0.001 3.204047,1.46058 4.927932,3.79689 5.330793,7.22461 0.406838,3.46155 -0.563233,5.16941 -2.936246,5.16941 -1.873527,0 -2.63122,-0.87482 -2.82321,-3.25962 -0.264135,-3.28095 -1.164873,-4.14871 -4.306339,-4.14871 -3.113254,0 -3.680478,0.29237 -8.370561,4.31458 -2.493329,2.13827 -4.649957,4.0663 -4.792507,4.28451 -0.142549,0.21821 -0.261612,4.2349 -0.264583,8.926 l -0.0054,8.52925 -0.929519,0.73116 c -1.258122,0.98964 -2.777832,0.93644 -3.849016,-0.13475 z m 49.606025,0.16743 c -2.263801,-0.83288 -4.661528,-2.76899 -6.374714,-5.14743 l -1.234722,-1.71418 -0.10532,-8.72405 c -0.100247,-8.30382 -0.0693,-8.79465 0.642423,-10.18975 1.15466,-2.26332 3.379023,-4.44512 5.729098,-5.61946 2.121818,-1.06029 2.17772,-1.06773 7.98945,-1.06431 5.463912,0.003 5.975778,0.0607 7.705825,0.8662 2.249686,1.04738 5.169334,3.88458 6.09422,5.92214 0.607887,1.33919 0.681019,2.36305 0.687943,9.63131 0.0077,8.04116 -0.0025,8.15339 -0.90185,9.95814 -1.051068,2.10922 -3.661984,4.59829 -6.064591,5.78157 -1.488797,0.73323 -2.239832,0.83177 -6.960532,0.91325 -4.562678,0.0787 -5.555558,-0.006 -7.20723,-0.61343 z m 13.5288,-7.09803 1.968707,-1.79928 v -6.97259 c 0,-7.88284 0.02147,-7.81208 -3.00073,-9.89141 -1.478011,-1.0169 -1.682963,-1.05687 -5.418338,-1.05687 -4.305756,0 -5.108908,0.20368 -7.094298,1.79919 -2.064417,1.65901 -2.183932,2.2193 -2.059668,9.65575 l 0.110535,6.61484 1.87669,1.72483 1.87669,1.72483 h 4.885852 4.885853 z m 71.699906,7.16371 c -2.18024,-0.76911 -5.90582,-4.00565 -6.98715,-6.06998 -0.78783,-1.50403 -0.8372,-1.99235 -0.93905,-9.28765 -0.13094,-9.37889 0.0922,-10.35855 3.0071,-13.20444 1.04703,-1.02223 2.72796,-2.33133 3.73538,-2.90911 l 1.83168,-1.05051 h 6.17361 c 6.16852,0 6.17509,8.5e-4 7.95908,1.02412 2.36375,1.3558 5.53568,4.81229 6.07839,6.62367 0.24256,0.80961 0.42642,3.4886 0.42642,6.21338 0,4.55421 -0.0419,4.83883 -0.85098,5.7799 l -0.85097,0.98981 -10.79069,0.10283 -10.79069,0.10284 v 1.35461 c 0,1.15148 0.25127,1.59965 1.6757,2.98877 0.92163,0.89879 2.23131,1.78987 2.91041,1.98017 0.6791,0.19031 4.83476,0.3469 9.23481,0.34798 l 8.00009,0.002 0.73116,0.92952 c 1.02,1.29671 0.94154,2.78975 -0.20229,3.84982 l -0.93346,0.8651 -8.85613,-0.0154 c -7.41824,-0.0129 -9.13316,-0.11317 -10.56242,-0.61736 z m 15.5714,-19.54524 c 0.16837,-2.61332 -0.43492,-4.23677 -2.05959,-5.5424 -1.84302,-1.48109 -3.01929,-1.79666 -6.68791,-1.79426 -3.95302,0.003 -5.35823,0.43899 -7.24988,2.25151 l -1.57189,1.50614 v 2.71247 2.71246 l 8.73125,-0.0943 8.73125,-0.0944 z m 30.23212,19.75386 c -1.32786,-0.46233 -3.4207,-2.05785 -7.14087,-5.44397 -3.78331,-3.44361 -4.08589,-4.34824 -3.91532,-11.70611 0.11009,-4.74913 0.19342,-5.31078 1.00202,-6.75361 0.94675,-1.68934 7.27077,-7.29442 9.33549,-8.2742 0.96871,-0.45968 2.61542,-0.55904 9.26536,-0.55904 7.9974,0 8.0958,0.009 8.85432,0.81649 1.04083,1.10791 1.02758,3.0491 -0.0276,4.04037 -0.74882,0.70348 -1.22359,0.75278 -8.23548,0.85524 l -7.44085,0.10874 -1.72867,1.41111 c -0.95076,0.77611 -2.48355,2.13599 -3.40619,3.02195 l -1.67752,1.61084 v 4.58354 c 0,3.12624 0.1402,4.76559 0.44097,5.15616 0.24254,0.31494 1.75608,1.67523 3.36344,3.02287 3.48129,2.91879 3.49481,2.92207 11.83281,2.87104 l 6.04745,-0.037 0.79933,0.92927 c 1.06007,1.23241 1.03326,2.80474 -0.0666,3.90458 l -0.86591,0.86591 -7.68895,-0.0279 c -4.35467,-0.0158 -8.14789,-0.18764 -8.74728,-0.39633 z m 43.48481,0.0854 c -2.73471,-0.85867 -5.24271,-3.58429 -5.89279,-6.40412 -0.1962,-0.85103 -0.3606,-5.87326 -0.36535,-11.16052 l -0.009,-9.61319 h -1.8927 c -2.52533,0 -3.75174,-0.91083 -3.75174,-2.78634 0,-1.95928 1.05215,-2.79015 3.7054,-2.9261 l 2.11543,-0.1084 0.0873,-3.70416 c 0.11077,-4.70292 0.22855,-5.16322 1.48784,-5.81442 1.47337,-0.76191 2.04518,-0.67375 3.21455,0.49561 1.02098,1.02098 1.03119,1.07167 1.03119,5.11528 v 4.08408 h 6.4649 c 6.30154,0 6.48427,0.0206 7.23194,0.81649 1.11875,1.19085 1.04105,3.15011 -0.16247,4.0968 -0.86159,0.67772 -1.39012,0.73116 -7.23194,0.73116 h -6.30243 v 9.90491 9.90491 l 1.0312,1.0312 c 0.9888,0.9888 1.16331,1.0312 4.24466,1.0312 4.06893,0 5.48041,-0.53601 6.23725,-2.36856 0.86042,-2.08337 1.45944,-2.57033 3.16184,-2.57033 1.89627,0 2.61116,0.88021 2.61116,3.21497 0,2.12685 -1.66801,4.64726 -4.05923,6.13364 -1.67038,1.0383 -1.79998,1.05966 -6.84738,1.12864 -2.82963,0.0387 -5.57911,-0.0661 -6.10996,-0.23275 z m 35.36102,0.0966 c -1.17482,-0.44983 -1.76365,-1.30535 -1.75267,-2.54647 0.0219,-2.47972 1.29739,-3.20852 5.6152,-3.20852 h 3.20337 l -0.0934,-10.67153 -0.0934,-10.67152 -3.64842,-0.17639 c -3.29799,-0.15945 -3.71307,-0.25639 -4.32153,-1.00922 -0.89947,-1.11292 -0.85031,-2.63197 0.12065,-3.72793 0.77911,-0.87942 0.88807,-0.89636 5.90903,-0.91876 2.8134,-0.0125 5.39309,-0.0151 5.73263,-0.006 0.33955,0.009 0.93486,0.33463 1.32292,0.72269 0.67978,0.67978 0.70556,1.17592 0.70556,13.58194 v 12.87639 h 3.32432 c 3.06169,0 3.41007,0.0721 4.40972,0.9133 1.29173,1.08692 1.4623,2.7761 0.41146,4.0747 l -0.67393,0.83283 -9.82121,0.0684 c -5.40166,0.0376 -10.05932,-0.0228 -10.35036,-0.13423 z m 46.4934,-0.23371 c -3.45559,-0.96907 -7.30996,-4.64197 -8.24437,-7.85621 -0.44248,-1.5221 -0.53016,-3.36286 -0.43914,-9.22023 0.11159,-7.18136 0.13171,-7.35257 1.07438,-9.14011 1.13903,-2.15988 4.14381,-4.92219 6.3102,-5.801 1.25689,-0.50987 2.63248,-0.63191 7.30306,-0.64791 5.53478,-0.019 5.8311,0.0165 7.76111,0.92946 2.09847,0.99261 4.93936,3.61378 5.98199,5.51933 0.52032,0.95095 0.62721,2.35459 0.7219,9.48012 0.10154,7.6412 0.0524,8.49472 -0.56855,9.87778 -1.01964,2.27104 -3.28203,4.59637 -5.77938,5.94018 -2.20959,1.18897 -2.27643,1.20072 -7.34516,1.2921 -3.42807,0.0618 -5.66306,-0.0614 -6.77604,-0.37351 z m 11.92658,-6.52797 c 2.81785,-2.06178 2.77417,-1.93429 2.901,-8.46609 0.15989,-8.23415 0.0983,-8.51627 -2.28436,-10.45714 l -1.9513,-1.58952 h -4.17803 c -2.29792,0 -4.55041,0.14157 -5.00554,0.31461 -0.45512,0.17304 -1.57671,1.02231 -2.49241,1.88727 l -1.6649,1.57265 v 6.98586 6.98586 l 1.88659,1.8866 1.8866,1.88659 h 4.76325 c 4.68158,0 4.78684,-0.0173 6.1391,-1.00669 z m 23.04498,6.09389 -0.85525,-0.91002 -0.10209,-14.17123 c -0.0562,-7.79417 -0.0124,-14.53245 0.0972,-14.97395 0.3204,-1.29074 1.46965,-2.19589 2.78806,-2.19589 1.75249,0 2.77934,0.99761 3.01608,2.93016 l 0.19801,1.6164 2.64583,-1.62171 c 4.37213,-2.67981 5.13155,-2.92312 9.26028,-2.96692 3.71678,-0.0394 5.66949,0.45937 7.33463,1.87353 1.11803,0.94951 2.40179,2.97718 2.74911,4.34215 0.19749,0.77611 0.55474,6.7952 0.7939,13.37576 l 0.43483,11.96464 -0.95744,0.82355 c -1.20958,1.04044 -2.73016,1.05171 -3.91906,0.0291 l -0.92365,-0.79449 -0.51067,-11.81731 c -0.28087,-6.49953 -0.66588,-12.17769 -0.85558,-12.61815 -0.45532,-1.05722 -1.70143,-1.49222 -4.27461,-1.49222 -2.41888,0 -2.75885,0.15098 -7.95615,3.53335 l -3.82142,2.48696 -0.17639,10.00338 -0.17639,10.00338 -0.88195,0.73306 c -1.2412,1.03167 -2.85294,0.96835 -3.90725,-0.15349 z m 46.90461,0.42298 c -3.02988,-1.08272 -5.25014,-3.15479 -5.25014,-4.8997 0,-0.47746 0.32903,-1.28639 0.73116,-1.79763 1.04178,-1.3244 2.96262,-1.2812 4.70805,0.10589 1.64098,1.30409 3.39521,1.54142 10.20015,1.38002 5.02006,-0.11906 5.18452,-0.14734 6.08259,-1.04593 1.16687,-1.16754 1.3163,-3.18929 0.30862,-4.17555 -0.37813,-0.3701 -3.22751,-1.81315 -6.33196,-3.20678 -9.96506,-4.47347 -11.6221,-5.29447 -12.64401,-6.26459 -3.00258,-2.85042 -3.12827,-7.24167 -0.29709,-10.37925 2.07625,-2.30095 2.52296,-2.39055 11.91871,-2.39055 9.6854,0 10.5118,0.15894 12.92621,2.48613 1.99335,1.92133 2.23515,3.33892 0.81222,4.76185 -1.24888,1.24888 -2.70599,1.13391 -4.67404,-0.36881 l -1.61707,-1.23472 h -7.28704 c -5.19734,0 -7.40845,0.1214 -7.71038,0.42333 -0.61599,0.61598 -0.51815,1.8564 0.19402,2.45998 0.33955,0.28778 4.34301,2.17358 8.89657,4.19069 6.53234,2.89364 8.5524,3.94897 9.57404,5.00169 4.41435,4.54869 3.38607,11.58292 -2.11317,14.45576 l -1.88592,0.98521 -7.63263,-0.0155 c -5.31193,-0.0108 -8.02068,-0.15415 -8.90889,-0.47156 z m -578.54457,-2.08182 c -1.36085,-1.04483 -1.38054,-1.38276 -1.38054,-23.70144 v -21.73058 l 3.92917,0.0998 3.92917,0.0997 7.20932,16.40417 c 3.96513,9.02229 7.42954,16.88042 7.69869,17.4625 0.42562,0.92047 0.49117,-1.09361 0.50318,-15.46116 l 0.0138,-16.5195 1.03119,-1.0312 c 1.33809,-1.33808 2.59675,-1.33808 3.93483,0 l 1.0312,1.0312 v 21.89936 21.89936 h -3.99764 -3.99764 l -0.89943,-2.20487 c -0.78976,-1.93602 -6.03617,-13.94783 -12.20101,-27.93457 l -2.01122,-4.56305 -0.18513,16.55749 c -0.10182,9.10662 -0.22089,16.591 -0.26459,16.63195 -1.35567,1.2703 -1.78956,1.51132 -2.70361,1.50183 -0.594,-0.006 -1.33189,-0.20461 -1.63975,-0.44098 z m 49.21026,-0.11576 c -1.84285,-0.65378 -5.7903,-3.89932 -6.88564,-5.66126 -0.81865,-1.31689 -0.84582,-1.5997 -0.95371,-9.92815 -0.10647,-8.21834 -0.0791,-8.63858 0.66124,-10.16799 0.89576,-1.85042 2.43084,-3.42918 5.16976,-5.31689 l 1.94782,-1.34248 6.32706,-0.11067 c 5.89207,-0.10306 6.43548,-0.0582 7.9042,0.65282 2.20557,1.06769 5.6225,4.34952 6.35841,6.107 0.90013,2.14966 1.15003,10.61465 0.35854,12.14522 -0.31082,0.60106 -0.76469,1.22197 -1.00861,1.37979 -0.24391,0.15783 -5.28536,0.36633 -11.2032,0.46334 l -10.75972,0.17639 0.0975,1.41111 c 0.0814,1.17854 0.37217,1.65777 1.76389,2.90764 0.91651,0.82308 2.222,1.65563 2.9011,1.85011 0.67909,0.19448 4.67455,0.35448 8.87878,0.35556 4.20424,10e-4 7.90105,0.10058 8.21513,0.22111 0.85995,0.32999 1.65195,2.11006 1.39476,3.13479 -0.12294,0.48981 -0.62396,1.20555 -1.11339,1.59054 -0.8362,0.65775 -1.4243,0.6983 -9.74994,0.67212 -6.79019,-0.0213 -9.19739,-0.14752 -10.30399,-0.5401 z m 15.37865,-20.55378 v -2.77729 l -1.55057,-1.42926 c -1.9122,-1.76261 -3.35933,-2.18389 -7.5105,-2.18641 -3.84681,-0.002 -4.54563,0.2241 -6.63484,2.14987 l -1.5902,1.4658 v 2.77729 2.77729 h 8.64305 8.64306 z m 23.143612,20.32799 c -0.684727,-0.6144 -1.240774,-2.06918 -2.460808,-6.4382 l -1.576194,-5.64444 -0.246843,-9.34861 -0.246844,-9.34861 0.883855,-0.81745 c 0.666494,-0.61641 1.210468,-0.78993 2.211962,-0.70555 2.401093,0.20228 2.531915,0.67099 2.985163,10.69522 0.310015,6.85641 0.56364,9.44761 1.139482,11.64166 0.407389,1.55223 0.849053,2.94868 0.981475,3.10324 0.132422,0.15455 1.088786,-1.11545 2.125254,-2.82223 l 1.884487,-3.10323 0.144018,-4.05694 c 0.124174,-3.49792 0.245016,-4.16632 0.876969,-4.8507 1.012757,-1.09677 2.841638,-1.06359 3.977385,0.0722 0.815173,0.81517 0.865909,1.09497 0.865909,4.77518 v 3.90927 l 1.848399,3.16232 c 1.01662,1.73928 1.934825,3.16232 2.040456,3.16232 0.105631,0 0.618721,-1.46844 1.1402,-3.26319 0.859538,-2.95824 0.976221,-4.07907 1.248585,-11.99354 0.291768,-8.47831 0.324385,-8.75582 1.129839,-9.61319 1.131326,-1.20424 3.094994,-1.21353 4.216313,-0.0199 l 0.81067,0.86292 -0.367529,9.65962 -0.36753,9.65962 -1.636966,5.44066 c -1.075887,3.57584 -1.885135,5.65226 -2.361006,6.05801 -0.555387,0.47356 -1.366361,0.61737 -3.481575,0.61737 -3.172344,0 -3.08066,0.07 -5.454578,-4.16754 -0.776111,-1.3854 -1.51651,-2.52259 -1.645332,-2.52708 -0.128822,-0.004 -0.806365,1.01493 -1.505652,2.26537 -0.699287,1.25044 -1.679562,2.75857 -2.178389,3.35139 -0.860007,1.02206 -1.041281,1.07786 -3.501758,1.07786 -2.193612,0 -2.731575,-0.12273 -3.479417,-0.79375 z M 114.51196,259.04272 c -0.82843,-0.76776 -0.93346,-1.12805 -0.93346,-3.20213 0,-2.11267 0.099,-2.43604 1.03119,-3.36824 0.91533,-0.91532 1.27406,-1.03119 3.19252,-1.03119 2.27102,0 4.00512,0.63526 4.37659,1.6033 0.12053,0.31409 0.21914,1.64166 0.21914,2.95017 0,2.03071 -0.11956,2.49142 -0.81648,3.14614 -0.68927,0.64753 -1.23094,0.76705 -3.47627,0.76705 -2.33433,0 -2.77399,-0.10585 -3.59323,-0.8651 z m 161.70796,-0.12808 c -0.90598,-0.90598 -1.06921,-1.33913 -1.06921,-2.83727 0,-2.03342 0.47101,-3.49749 1.33679,-4.15527 0.36838,-0.27988 1.64467,-0.46287 3.27602,-0.46972 2.34548,-0.01 2.76641,0.0887 3.43959,0.80527 0.63832,0.67946 0.76705,1.23531 0.76705,3.3123 0,3.56508 -0.50282,4.10191 -4.00779,4.2789 -2.58509,0.13054 -2.70851,0.0997 -3.74245,-0.93421 z"
       id="path1" /></g></svg>
